<svg width="22" height="22" viewBox="0 0 22 22" fill="none" xmlns="http://www.w3.org/2000/svg">
<path d="M20.1996 16.2191C20.0884 15.9742 19.908 15.7671 19.6805 15.6235L16.5831 13.411C16.3766 13.2687 16.1573 13.1462 15.9278 13.0451C15.7478 12.9674 15.5538 12.9269 15.3577 12.926C15.1231 12.9318 14.8942 12.9993 14.694 13.1217C14.4412 13.2611 14.2139 13.4424 14.0217 13.6578C13.8077 13.8678 13.5328 14.0048 13.2363 14.0491C12.9398 14.0934 12.6369 14.0428 12.3709 13.9046C10.5798 12.9158 9.10487 11.4408 8.11613 9.64982C7.95961 9.38161 7.89642 9.06908 7.93646 8.76113C7.97649 8.45319 8.11749 8.1672 8.33738 7.94792C8.53284 7.74942 8.70161 7.52629 8.83943 7.28419C8.96335 7.08465 9.03098 6.8553 9.03516 6.62045C9.02868 6.42317 8.98236 6.22923 8.899 6.05031C8.80657 5.81493 8.68044 5.59422 8.52458 5.39508L6.35467 2.33167C6.19691 2.10486 5.98282 1.92303 5.73347 1.80408C5.49292 1.69531 5.2316 1.64014 4.96762 1.6424C4.60385 1.64789 4.24485 1.72599 3.91168 1.87211C3.57851 2.01824 3.27789 2.22945 3.02746 2.49335C2.55542 2.92853 2.18625 3.4634 1.94675 4.05909C1.7232 4.63407 1.61059 5.2462 1.61488 5.8631C1.60828 6.92154 1.83795 7.9681 2.28713 8.92652C3.66567 11.8283 8.95857 17.5126 13.0261 19.657C13.9731 20.1313 15.0223 20.3651 16.081 20.3377C16.705 20.342 17.3238 20.2235 17.902 19.9888C18.4921 19.7407 19.0186 19.3625 19.4422 18.8826C19.7 18.5975 19.9149 18.2764 20.0805 17.9296C20.2282 17.6092 20.3065 17.2612 20.3102 16.9084C20.3161 16.6738 20.2786 16.4401 20.1996 16.2191Z" stroke="#8E949A" stroke-width="1.5" stroke-linecap="round" stroke-linejoin="round"/>
<path d="M13.0941 1.6593C16.0724 1.6593 20.3187 4.90141 20.3187 8.88385" stroke="#8E949A" stroke-width="1.5" stroke-linecap="round" stroke-linejoin="round"/>
<path d="M12.4984 4.90991C14.396 4.90991 17.0935 6.96921 17.0935 9.50503" stroke="#8E949A" stroke-width="1.5" stroke-linecap="round" stroke-linejoin="round"/>
<path d="M12.3705 8.06689C12.7769 8.09623 13.1592 8.27038 13.4481 8.55769C13.737 8.84501 13.9132 9.22643 13.9447 9.63264" stroke="#8E949A" stroke-width="1.5" stroke-linecap="round" stroke-linejoin="round"/>
</svg>
