<svg width="7" height="12" viewBox="0 0 7 12" fill="none" xmlns="http://www.w3.org/2000/svg">
<path d="M1.475 11.8337C1.59949 11.8341 1.7225 11.8067 1.83498 11.7533C1.94747 11.7 2.04656 11.6221 2.125 11.5254L6.15 6.52539C6.27256 6.37628 6.33957 6.18925 6.33957 5.99623C6.33957 5.80321 6.27256 5.61617 6.15 5.46706L1.98333 0.467059C1.84188 0.296879 1.63862 0.189858 1.41827 0.169542C1.19791 0.149225 0.97851 0.217277 0.808329 0.358726C0.638149 0.500175 0.531129 0.703434 0.510812 0.923789C0.490496 1.14414 0.558547 1.36355 0.699996 1.53373L4.425 6.00039L0.824996 10.4671C0.723094 10.5894 0.658363 10.7383 0.638463 10.8963C0.618564 11.0542 0.644328 11.2146 0.712708 11.3584C0.781087 11.5021 0.889221 11.6233 1.02431 11.7076C1.1594 11.7918 1.3158 11.8356 1.475 11.8337Z" fill="black"/>
</svg>
