<svg width="24" height="23" viewBox="0 0 24 23" fill="none" xmlns="http://www.w3.org/2000/svg">
<path opacity="0.15" fill-rule="evenodd" clip-rule="evenodd" d="M5.48289 0.728487C2.99176 1.05749 1.07995 2.9693 0.750948 5.46043C0.524764 7.17302 0.33252 9.31533 0.33252 11.6499C0.33252 13.9844 0.524764 16.1268 0.750948 17.8394C1.07995 20.3305 2.99176 22.2423 5.48289 22.5713C7.19548 22.7975 9.33779 22.9897 11.6724 22.9897C14.0069 22.9897 16.1492 22.7975 17.8619 22.5713C20.353 22.2423 22.2648 20.3305 22.5938 17.8394C22.82 16.1268 23.0122 13.9844 23.0122 11.6499C23.0122 9.31533 22.82 7.17302 22.5938 5.46043C22.2648 2.9693 20.353 1.05749 17.8619 0.728487C16.1492 0.502303 14.0069 0.310059 11.6724 0.310059C9.33779 0.310059 7.19548 0.502303 5.48289 0.728487Z" fill="#4B78FE"/>
<path d="M10.5077 14.7246L13.8994 11.2235L10.5077 7.94128" stroke="#456EFE" stroke-width="1.5" stroke-linecap="round" stroke-linejoin="round"/>
</svg>
