<svg width="26" height="26" viewBox="0 0 26 26" fill="none" xmlns="http://www.w3.org/2000/svg">
<rect x="0.501953" y="0.462158" width="25.1739" height="25.1739" rx="5" fill="#0991CC" fill-opacity="0.26"/>
<path d="M10.0337 11.416V11.8433" stroke="#095F85" stroke-width="1.2" stroke-linecap="round" stroke-linejoin="round"/>
<path d="M11.8716 11.416V11.8433" stroke="#095F85" stroke-width="1.2" stroke-linecap="round" stroke-linejoin="round"/>
<path d="M13.7153 11.416V11.8433" stroke="#095F85" stroke-width="1.2" stroke-linecap="round" stroke-linejoin="round"/>
<path d="M15.5532 11.416V11.8433" stroke="#095F85" stroke-width="1.2" stroke-linecap="round" stroke-linejoin="round"/>
<path d="M18.2966 9.25185C18.2895 8.8928 18.1799 8.54326 17.9807 8.24446C17.7815 7.94565 17.501 7.71004 17.1723 7.56539C15.7987 6.93768 14.3062 6.61279 12.796 6.61279C11.2857 6.61279 9.79319 6.93768 8.4196 7.56539C8.09513 7.708 7.81749 7.93928 7.6186 8.23264C7.41971 8.526 7.30765 8.86953 7.29529 9.22374C7.21097 11.4724 7.5595 16.4699 11.9836 18.7804C12.2385 18.9139 12.5206 18.9869 12.8082 18.9937C13.0958 19.0006 13.3811 18.941 13.642 18.8197C18.0437 16.7622 18.3866 11.5904 18.2966 9.25185Z" stroke="#095F85" stroke-width="1.2" stroke-linecap="round" stroke-linejoin="round"/>
</svg>
