<svg width="17" height="9" viewBox="0 0 17 9" fill="none" xmlns="http://www.w3.org/2000/svg">
<path fill-rule="evenodd" clip-rule="evenodd" d="M15.8575 3.72955C15.6875 3.53537 15.2053 3.47385 14.8173 3.53351C14.625 3.56302 11.8077 4.39979 11.8077 4.39979C11.8879 4.6525 12.0198 5.11476 11.5426 5.58745C11.217 5.87431 10.7155 5.95978 10.0641 5.94685C9.4135 5.93392 8.70823 5.83176 8.16511 5.76369C7.98868 5.74154 7.49925 5.6762 7.49925 5.6762C7.49925 5.6762 7.84374 5.516 8.3112 5.49991C8.89447 5.48066 9.3534 5.48464 9.61808 5.49991C9.90765 5.51682 10.3238 5.55304 10.4978 5.55958C11.2932 5.58942 11.4823 5.07484 11.4862 4.87041C11.4961 4.293 11.172 4.10111 10.167 4.01667C9.52082 3.9624 8.82672 3.91898 8.34306 3.85767C7.41059 3.73838 6.74089 3.47396 6.39931 3.44144C6.16424 3.41847 5.55524 3.30355 4.97657 3.78626C3.22136 5.24963 0.0507812 6.16606 0.0507812 6.16787C0.529488 7.7632 3.17048 8.36041 3.17048 8.36041C4.29318 7.33814 5.53737 7.21198 6.6015 7.17275C6.78483 7.16572 8.56868 7.16555 10.2164 7.36513C10.5477 7.38891 10.8315 7.20946 10.8315 7.20946C13.3032 5.61665 15.4112 4.74449 15.4112 4.74449C15.9112 4.55501 16.0582 4.32876 16.0505 4.15536C16.0359 3.84009 15.8592 3.73188 15.8572 3.72953L15.8575 3.72955ZM10.1689 3.72333H11.8583C12.0449 3.72333 12.1963 3.58544 12.1963 3.41536C12.1963 3.24514 12.045 3.1074 11.8583 3.1074L10.1689 3.10734C9.98222 3.10734 9.83105 3.24507 9.83105 3.41531C9.83105 3.58544 9.98222 3.72333 10.1689 3.72333ZM10.1689 2.79639H11.8583C12.0449 2.79639 12.1963 2.6585 12.1963 2.48843C12.1963 2.3182 12.045 2.18063 11.8583 2.18063L10.1689 2.18058C9.98222 2.18058 9.83105 2.3183 9.83105 2.48837C9.83105 2.65834 9.98222 2.79639 10.1689 2.79639ZM10.1689 1.86908H11.8583C12.0449 1.86908 12.1963 1.73119 12.1963 1.56128C12.1963 1.39105 12.045 1.25332 11.8583 1.25332H10.1689C9.98222 1.25332 9.83105 1.39104 9.83105 1.56128C9.83105 1.73119 9.98222 1.86908 10.1689 1.86908ZM7.20525 3.10539H8.89458C9.08131 3.10539 9.23263 2.9675 9.23263 2.79742C9.23263 2.6272 9.08142 2.48963 8.89458 2.48963L7.20525 2.48957C7.01852 2.48957 6.8675 2.6273 6.8675 2.79737C6.8675 2.96744 7.01867 3.10539 7.20525 3.10539ZM7.20525 2.17824H8.89458C9.08131 2.17824 9.23263 2.04035 9.23263 1.87028C9.23263 1.70005 9.08142 1.56231 8.89458 1.56231H7.20525C7.01852 1.56231 6.8675 1.70004 6.8675 1.87028C6.8675 2.04035 7.01867 2.17824 7.20525 2.17824ZM10.1689 0.942155H11.8583C12.0449 0.942155 12.1963 0.804266 12.1963 0.634191C12.1963 0.463962 12.045 0.326226 11.8583 0.326226L10.1689 0.326172C9.98222 0.326172 9.83105 0.463898 9.83105 0.634136C9.83105 0.804099 9.98222 0.942155 10.1689 0.942155Z" fill="#095F85"/>
</svg>
