<svg width="24" height="25" viewBox="0 0 24 25" fill="none" xmlns="http://www.w3.org/2000/svg">
<path fill-rule="evenodd" clip-rule="evenodd" d="M13.7147 2.56523C13.7147 1.61846 12.9472 0.850952 12.0004 0.850952C11.0536 0.850952 10.2861 1.61846 10.2861 2.56523V11.1344H1.71721C0.770441 11.1344 0.00292974 11.9019 0.00292969 12.8486C0.00292965 13.7954 0.770441 14.5629 1.71721 14.5629H10.2861V23.1321C10.2861 24.0788 11.0536 24.8464 12.0004 24.8464C12.9472 24.8464 13.7147 24.0788 13.7147 23.1321V14.5629H22.2841C23.2309 14.5629 23.9984 13.7954 23.9984 12.8486C23.9984 11.9019 23.2309 11.1344 22.2841 11.1344H13.7147V2.56523Z" fill="#F58634"/>
</svg>
