<svg width="20" height="16" viewBox="0 0 20 16" fill="none" xmlns="http://www.w3.org/2000/svg">
<path d="M10.0004 12C12.2095 12 14.0004 10.2091 14.0004 8C14.0004 5.79086 12.2095 4 10.0004 4C7.79123 4 6.00037 5.79086 6.00037 8C6.00037 10.2091 7.79123 12 10.0004 12ZM19.0049 0.00292969H1.00488C0.452603 0.00292969 0.00488281 0.45064 0.00488281 1.00293V15.0029C0.00488281 15.5552 0.452603 16.0029 1.00488 16.0029H19.0049C19.5572 16.0029 20.0049 15.5552 20.0049 15.0029V1.00293C20.0049 0.45064 19.5572 0.00292969 19.0049 0.00292969ZM2.00488 11.6463V4.35371C3.13065 4.017 4.01836 3.12892 4.35455 2.00293H15.6462C15.9833 3.13193 16.8748 4.02175 18.0049 4.3564V11.6436C16.8729 11.9788 15.9802 12.8711 15.6444 14.0029H4.3563C4.02144 12.8742 3.13261 11.9836 2.00488 11.6463Z" fill="#095F85"/>
</svg>
