<svg width="28" height="27" viewBox="0 0 28 27" fill="none" xmlns="http://www.w3.org/2000/svg">
<rect x="0.629883" y="12.9934" width="3.28322" height="1.69566" rx="0.847829" fill="#095F85"/>
<rect x="23.8662" y="12.9934" width="3.28322" height="1.69566" rx="0.847829" fill="#095F85"/>
<rect x="3.45508" y="5.89783" width="1.69566" height="3.38072" rx="0.847829" transform="rotate(-45 3.45508 5.89783)" fill="#095F85"/>
<rect x="13.042" y="0.580688" width="1.69566" height="3.28322" rx="0.847829" fill="#095F85"/>
<rect x="20.7344" y="7.09021" width="3.38072" height="1.69566" rx="0.847829" transform="rotate(-45 20.7344 7.09021)" fill="#095F85"/>
<rect x="3.45508" y="21.7805" width="3.38072" height="1.69566" rx="0.847829" transform="rotate(-45 3.45508 21.7805)" fill="#095F85"/>
<rect x="20.7344" y="20.5905" width="1.69566" height="3.38072" rx="0.847829" transform="rotate(-45 20.7344 20.5905)" fill="#095F85"/>
<path fill-rule="evenodd" clip-rule="evenodd" d="M10.835 22.9848C10.835 24.0764 11.4173 25.085 12.3626 25.6308C13.3079 26.1765 14.4726 26.1765 15.4179 25.6308C16.3632 25.085 16.9455 24.0764 16.9455 22.9848V20.9811H10.835V22.9848Z" stroke="#095F85" stroke-linejoin="round"/>
<path fill-rule="evenodd" clip-rule="evenodd" d="M16.9468 21.0345C16.9384 20.0508 17.3487 19.1099 18.0753 18.4467C20.0182 16.7113 20.6894 13.9573 19.7628 11.5225C18.8362 9.08781 16.5038 7.47691 13.8987 7.47242C11.2936 7.46793 8.95567 9.07077 8.02066 11.5023C7.08565 13.9338 7.74734 16.6901 9.68428 18.4322C10.4178 19.0981 10.8344 20.0438 10.8308 21.0345V21.0544H16.9468V21.0345Z" stroke="#095F85" stroke-linejoin="round"/>
<path d="M15.9265 9.78137L12.3506 13.4053L13.7654 14.7898L12.3506 17.8999L16.3983 14.3937L14.5429 13.4053L15.9265 9.78137Z" fill="#095F85"/>
</svg>
