<svg width="13" height="24" viewBox="0 0 13 24" fill="none" xmlns="http://www.w3.org/2000/svg">
<path d="M0.878906 2.95593C0.878906 1.85136 1.77434 0.955933 2.87891 0.955933H10.1556C11.2601 0.955933 12.1556 1.85136 12.1556 2.95593V20.9559C12.1556 22.0605 11.2601 22.9559 10.1556 22.9559H2.87891C1.77434 22.9559 0.878906 22.0605 0.878906 20.9559V2.95593Z" stroke="#095F85"/>
<path d="M8.71996 2.74084H4.57188C3.99465 2.74084 3.52671 2.2729 3.52671 1.69568C3.52671 1.31086 3.21476 0.998901 2.82994 0.998901H10.4619C10.0771 0.998901 9.76512 1.31086 9.76512 1.69568C9.76512 2.2729 9.29718 2.74084 8.71996 2.74084Z" fill="#095F85"/>
<path d="M8.17184 6.89636L4.35938 10.76L5.86773 12.236L4.35938 15.5518L8.6748 11.8137L6.69668 10.76L8.17184 6.89636Z" fill="#095F85"/>
</svg>
