<svg width="24" height="18" viewBox="0 0 24 18" fill="none" xmlns="http://www.w3.org/2000/svg">
<path d="M0.689453 3.99659C3.78027 1.49704 7.71526 0 11.9999 0C16.2845 0 20.2195 1.49704 23.3104 3.99659L21.4253 6.33049C18.8496 4.24753 15.5704 3 11.9999 3C8.42937 3 5.15021 4.24753 2.57453 6.33049L0.689453 3.99659ZM3.83124 7.8864C6.0635 6.08119 8.90544 5 11.9999 5C15.0944 5 17.9363 6.08119 20.1686 7.8864L18.2835 10.2203C16.5664 8.8317 14.3803 8 11.9999 8C9.61954 8 7.43344 8.8317 5.71632 10.2203L3.83124 7.8864ZM6.97304 11.7763C8.34673 10.6653 10.0956 10 11.9999 10C13.9042 10 15.6531 10.6653 17.0268 11.7763L15.1417 14.1102C14.2831 13.4158 13.1901 13 11.9999 13C10.8097 13 9.71667 13.4158 8.85811 14.1102L6.97304 11.7763ZM10.1148 15.6661C10.63 15.2495 11.2858 15 11.9999 15C12.714 15 13.3698 15.2495 13.885 15.6661L11.9999 18L10.1148 15.6661Z" fill="#F58634"/>
</svg>
