<svg width="32" height="32" viewBox="0 0 32 32" fill="none" xmlns="http://www.w3.org/2000/svg">
<path d="M20.8311 26.16H25.2991C26.6316 26.16 27.7114 24.7632 27.7114 23.0535V20.9917M20.8311 4.36963H25.2991C26.6316 4.36963 27.7114 5.75523 27.7114 7.46503V9.53803M4.71155 9.53803V7.46503C4.71155 5.75533 5.79145 4.36963 7.12385 4.36963H11.5831M4.71155 20.9916V23.0534C4.71155 24.7631 5.79145 26.1599 7.12385 26.1599H11.5831" stroke="white" stroke-width="2" stroke-miterlimit="10" stroke-linecap="round" stroke-linejoin="round"/>
<path d="M20.8311 26.16H25.2991C26.6316 26.16 27.7114 24.7632 27.7114 23.0535V20.9917M20.8311 4.36963H25.2991C26.6316 4.36963 27.7114 5.75523 27.7114 7.46503V9.53803M4.71155 9.53803V7.46503C4.71155 5.75533 5.79145 4.36963 7.12385 4.36963H11.5831M4.71155 20.9916V23.0534C4.71155 24.7631 5.79145 26.1599 7.12385 26.1599H11.5831" stroke="white" stroke-width="2" stroke-miterlimit="10" stroke-linecap="round" stroke-linejoin="round"/>
<path d="M18.8015 21.3734H21.3066C22.0537 21.3734 22.6591 20.5904 22.6591 19.6318V18.4757M18.8015 9.15635H21.3066C22.0537 9.15635 22.6591 9.93325 22.6591 10.8918V12.0541M9.76379 12.054V10.8917C9.76379 9.93315 10.3693 9.15625 11.1163 9.15625H13.6165M9.76379 18.4756V19.6316C9.76379 20.5902 10.3693 21.3734 11.1163 21.3734H13.6165" stroke="white" stroke-width="2" stroke-miterlimit="10" stroke-linecap="round" stroke-linejoin="round"/>
<path d="M18.8015 21.3734H21.3066C22.0537 21.3734 22.6591 20.5904 22.6591 19.6318V18.4757M18.8015 9.15635H21.3066C22.0537 9.15635 22.6591 9.93325 22.6591 10.8918V12.0541M9.76379 12.054V10.8917C9.76379 9.93315 10.3693 9.15625 11.1163 9.15625H13.6165M9.76379 18.4756V19.6316C9.76379 20.5902 10.3693 21.3734 11.1163 21.3734H13.6165" stroke="white" stroke-width="2" stroke-miterlimit="10" stroke-linecap="round" stroke-linejoin="round"/>
<path d="M4.71204 15.2651H27.712" stroke="white" stroke-width="2" stroke-miterlimit="10" stroke-linecap="round" stroke-linejoin="round"/>
</svg>
